<svg width="281" height="261" xmlns="http://www.w3.org/2000/svg" xmlns:xlink="http://www.w3.org/1999/xlink" xml:space="preserve" overflow="hidden"><defs><clipPath id="clip0"><rect x="2403" y="761" width="281" height="261"/></clipPath></defs><g clip-path="url(#clip0)" transform="translate(-2403 -761)"><path d="M2479 898.368C2481.75 933.741 2504.79 965.679 2526.8 992.809L2526.8 898.368ZM2423.98 898.368C2427.07 949.538 2465.24 991.092 2514.76 999.678 2492.41 972.204 2467.99 937.518 2465.24 898.368ZM2526.8 790.191C2504.79 817.321 2481.75 849.259 2479 884.632L2526.8 884.632ZM2514.76 783.323C2465.24 791.908 2427.07 833.462 2423.98 884.632L2465.24 884.632C2467.65 845.482 2492.41 810.796 2514.76 783.323ZM2533.68 761C2578.81 761 2618.57 783.805 2642.05 818.516L2644 822.115 2627.98 820.15 2617.58 821.425 2615.39 818.008C2599.27 800.15 2577.35 787.615 2552.59 783.323 2563.77 797.059 2575.54 812.599 2584.83 829.598L2586.96 834.458 2582.74 837.399 2576.44 844.635 2571.67 834.192C2562.82 818.437 2551.56 803.756 2540.55 790.191L2540.55 884.632 2560.42 884.632 2560.52 897.096 2560.84 898.368 2540.55 898.368 2540.55 992.809C2551.56 979.244 2562.82 964.477 2571.67 948.68L2576.18 938.803 2583.64 955.279 2569.42 977.763C2563.92 985.49 2558.18 992.809 2552.59 999.678 2564.97 997.531 2576.64 993.325 2587.23 987.422L2595.29 981.001 2595.48 981.423 2604.74 1000.82 2584.56 1011.75C2568.92 1018.35 2551.73 1022 2533.68 1022 2461.46 1022 2403 963.618 2403 891.5 2403 819.382 2461.46 761 2533.68 761Z" fill-rule="evenodd"/><path d="M2629.5 918.088C2616.48 918.088 2606.07 907.677 2606.07 894.662 2606.07 881.647 2616.48 871.235 2629.5 871.235 2642.52 871.235 2652.93 881.647 2652.93 894.662 2652.93 907.677 2642.52 918.088 2629.5 918.088ZM2629.5 840C2611.53 840 2594.61 848.85 2584.46 863.947 2574.3 878.784 2572.22 897.785 2578.73 914.705L2603.46 969.366 2624.81 1014.14C2625.59 1015.96 2627.42 1017 2629.5 1017 2631.58 1017 2633.41 1015.96 2634.19 1014.14L2655.54 969.366 2680.27 914.705C2686.78 897.785 2684.7 878.784 2674.54 863.947 2664.39 848.85 2647.47 840 2629.5 840Z" fill-rule="evenodd"/></g></svg>