<svg width="469" height="485" xmlns="http://www.w3.org/2000/svg" xmlns:xlink="http://www.w3.org/1999/xlink" xml:space="preserve" overflow="hidden"><defs><clipPath id="clip0"><rect x="547" y="1043" width="469" height="485"/></clipPath></defs><g clip-path="url(#clip0)" transform="translate(-547 -1043)"><path d="M866.857 1464C816.021 1501.01 746.979 1501.01 696.144 1464 691.701 1470.14 686.241 1475.48 680 1479.8 739.917 1525.4 823.084 1525.4 883 1479.8 876.759 1475.48 871.3 1470.14 866.857 1464Z" stroke="#0000FF" stroke-width="27.5" stroke-miterlimit="8" fill="#0000FF" fill-rule="evenodd"/><path d="M1016 1410.5C1016 1446.67 986.675 1476 950.5 1476 914.325 1476 885 1446.67 885 1410.5 885 1374.33 914.325 1345 950.5 1345 986.675 1345 1016 1374.33 1016 1410.5Z" fill="#FF0000" fill-rule="evenodd"/><path d="M678 1410.5C678 1446.67 648.675 1476 612.5 1476 576.325 1476 547 1446.67 547 1410.5 547 1374.33 576.325 1345 612.5 1345 648.675 1345 678 1374.33 678 1410.5Z" fill="#FF0000" fill-rule="evenodd"/><path d="M635.679 1180 638.5 1191.21 644 1203.4 632.493 1216.07C614.531 1240.57 604.307 1270.6 604.305 1302.22 604.305 1306.08 604.305 1309.88 604.807 1313.69 597.233 1314.18 589.8 1315.97 582.836 1319 582.279 1313.52 582 1307.93 582 1302.22 582.011 1264.66 594.508 1229.12 616.305 1200.47Z" stroke="#0000FF" stroke-width="27.5" stroke-miterlimit="8" fill="#0000FF" fill-rule="evenodd"/><path d="M927.322 1180 946.754 1200.54C968.53 1229.19 981.006 1264.71 981 1302.23 981 1307.82 980.721 1313.41 980.163 1319 973.211 1315.88 965.774 1313.99 958.178 1313.41 958.68 1309.89 958.68 1306.08 958.68 1302.23 958.695 1270.64 948.495 1240.63 930.555 1216.14L919 1203.4 924.486 1191.25Z" stroke="#0000FF" stroke-width="27.5" stroke-miterlimit="8" fill="#0000FF" fill-rule="evenodd"/><path d="M782 1213.29C753.574 1213.29 730.833 1190.59 730.833 1162.21 730.833 1133.82 753.574 1111.12 782 1111.12 810.426 1111.12 833.167 1133.82 833.167 1162.21 833.167 1190.59 810.426 1213.29 782 1213.29ZM782 1043C742.772 1043 705.819 1062.3 683.646 1095.22 661.474 1127.58 656.925 1169.02 671.139 1205.91L725.148 1325.12 771.767 1422.76C773.472 1426.73 777.452 1429 782 1429 786.548 1429 790.528 1426.73 792.233 1422.76L838.852 1325.12 892.862 1205.91C907.075 1169.02 902.527 1127.58 880.354 1095.22 858.182 1062.3 821.228 1043 782 1043Z" fill="#FF0000" fill-rule="evenodd"/></g></svg>